%TF.GenerationSoftware,KiCad,Pcbnew,9.0.4*%
%TF.CreationDate,2025-10-22T22:17:21-04:00*%
%TF.ProjectId,buck_regulator_12V_3A_L6983,6275636b-5f72-4656-9775-6c61746f725f,rev?*%
%TF.SameCoordinates,Original*%
%TF.FileFunction,Copper,L3,Inr*%
%TF.FilePolarity,Positive*%
%FSLAX46Y46*%
G04 Gerber Fmt 4.6, Leading zero omitted, Abs format (unit mm)*
G04 Created by KiCad (PCBNEW 9.0.4) date 2025-10-22 22:17:21*
%MOMM*%
%LPD*%
G01*
G04 APERTURE LIST*
%TA.AperFunction,ComponentPad*%
%ADD10R,1.700000X1.700000*%
%TD*%
%TA.AperFunction,ComponentPad*%
%ADD11C,1.700000*%
%TD*%
%TA.AperFunction,ViaPad*%
%ADD12C,0.600000*%
%TD*%
G04 APERTURE END LIST*
D10*
%TO.N,14.8V*%
%TO.C,J1*%
X135300000Y-108400000D03*
D11*
%TO.N,GND*%
X135300000Y-105860000D03*
%TO.N,12V*%
X135300000Y-103320000D03*
%TD*%
D12*
%TO.N,Net-(C24-Pad2)*%
X144272000Y-104140000D03*
%TO.N,GND*%
X137795000Y-113284000D03*
X151887000Y-112014000D03*
X146558000Y-115824000D03*
%TO.N,Net-(C24-Pad2)*%
X151887000Y-109982000D03*
%TO.N,14.8V*%
X141986000Y-108165997D03*
X141224000Y-108165997D03*
X147574000Y-108165997D03*
X146812000Y-108165997D03*
X141986000Y-110617000D03*
X146812000Y-108966000D03*
X147574000Y-108966000D03*
%TO.N,GND*%
X145034000Y-109982000D03*
X143764000Y-109982000D03*
X141224000Y-107188000D03*
%TO.N,14.8V*%
X141224000Y-108966000D03*
X141986000Y-108966000D03*
%TO.N,GND*%
X141986000Y-107188000D03*
X143002000Y-107696000D03*
X145669000Y-107696000D03*
X146812000Y-107188000D03*
X147574000Y-107188000D03*
%TD*%
%TA.AperFunction,Conductor*%
%TO.N,14.8V*%
G36*
X142381352Y-107837352D02*
G01*
X142875000Y-108331000D01*
X145923000Y-108331000D01*
X146289300Y-107842600D01*
X146321570Y-107823492D01*
X146328500Y-107823000D01*
X148033000Y-107823000D01*
X148067648Y-107837352D01*
X148082000Y-107872000D01*
X148082000Y-111203000D01*
X148067648Y-111237648D01*
X148033000Y-111252000D01*
X140638000Y-111252000D01*
X140603352Y-111237648D01*
X140589000Y-111203000D01*
X140589000Y-109916104D01*
X143263500Y-109916104D01*
X143263500Y-110047895D01*
X143297607Y-110175184D01*
X143297608Y-110175188D01*
X143363500Y-110289314D01*
X143456686Y-110382500D01*
X143498457Y-110406617D01*
X143570811Y-110448391D01*
X143570813Y-110448391D01*
X143570814Y-110448392D01*
X143671207Y-110475292D01*
X143698104Y-110482499D01*
X143698105Y-110482500D01*
X143698108Y-110482500D01*
X143829895Y-110482500D01*
X143829895Y-110482499D01*
X143957186Y-110448392D01*
X144071314Y-110382500D01*
X144164500Y-110289314D01*
X144230392Y-110175186D01*
X144264499Y-110047895D01*
X144264500Y-110047895D01*
X144264500Y-109916105D01*
X144264499Y-109916104D01*
X144533500Y-109916104D01*
X144533500Y-110047895D01*
X144567607Y-110175184D01*
X144567608Y-110175188D01*
X144633500Y-110289314D01*
X144726686Y-110382500D01*
X144768457Y-110406617D01*
X144840811Y-110448391D01*
X144840813Y-110448391D01*
X144840814Y-110448392D01*
X144941207Y-110475292D01*
X144968104Y-110482499D01*
X144968105Y-110482500D01*
X144968108Y-110482500D01*
X145099895Y-110482500D01*
X145099895Y-110482499D01*
X145227186Y-110448392D01*
X145341314Y-110382500D01*
X145434500Y-110289314D01*
X145500392Y-110175186D01*
X145534499Y-110047895D01*
X145534500Y-110047895D01*
X145534500Y-109916105D01*
X145534499Y-109916104D01*
X145500392Y-109788815D01*
X145500391Y-109788811D01*
X145434499Y-109674685D01*
X145341314Y-109581500D01*
X145227188Y-109515608D01*
X145227184Y-109515607D01*
X145099895Y-109481500D01*
X145099892Y-109481500D01*
X144968108Y-109481500D01*
X144968105Y-109481500D01*
X144840815Y-109515607D01*
X144840811Y-109515608D01*
X144726685Y-109581500D01*
X144726685Y-109581501D01*
X144633501Y-109674685D01*
X144633500Y-109674685D01*
X144567608Y-109788811D01*
X144567607Y-109788815D01*
X144533500Y-109916104D01*
X144264499Y-109916104D01*
X144230392Y-109788815D01*
X144230391Y-109788811D01*
X144164499Y-109674685D01*
X144071314Y-109581500D01*
X143957188Y-109515608D01*
X143957184Y-109515607D01*
X143829895Y-109481500D01*
X143829892Y-109481500D01*
X143698108Y-109481500D01*
X143698105Y-109481500D01*
X143570815Y-109515607D01*
X143570811Y-109515608D01*
X143456685Y-109581500D01*
X143456685Y-109581501D01*
X143363501Y-109674685D01*
X143363500Y-109674685D01*
X143297608Y-109788811D01*
X143297607Y-109788815D01*
X143263500Y-109916104D01*
X140589000Y-109916104D01*
X140589000Y-107872000D01*
X140603352Y-107837352D01*
X140638000Y-107823000D01*
X142346704Y-107823000D01*
X142381352Y-107837352D01*
G37*
%TD.AperFunction*%
%TD*%
M02*
