%TF.GenerationSoftware,KiCad,Pcbnew,9.0.4*%
%TF.CreationDate,2025-10-22T22:14:30-04:00*%
%TF.ProjectId,buck_regulator_12V_3A_L6983,6275636b-5f72-4656-9775-6c61746f725f,rev?*%
%TF.SameCoordinates,Original*%
%TF.FileFunction,Legend,Top*%
%TF.FilePolarity,Positive*%
%FSLAX46Y46*%
G04 Gerber Fmt 4.6, Leading zero omitted, Abs format (unit mm)*
G04 Created by KiCad (PCBNEW 9.0.4) date 2025-10-22 22:14:30*
%MOMM*%
%LPD*%
G01*
G04 APERTURE LIST*
%ADD10C,0.150000*%
%ADD11C,0.120000*%
%ADD12C,0.152400*%
%ADD13C,0.000000*%
G04 APERTURE END LIST*
D10*
X143845180Y-103050533D02*
X143845180Y-102574343D01*
X143845180Y-102574343D02*
X144845180Y-102574343D01*
X144749942Y-103336248D02*
X144797561Y-103383867D01*
X144797561Y-103383867D02*
X144845180Y-103479105D01*
X144845180Y-103479105D02*
X144845180Y-103717200D01*
X144845180Y-103717200D02*
X144797561Y-103812438D01*
X144797561Y-103812438D02*
X144749942Y-103860057D01*
X144749942Y-103860057D02*
X144654704Y-103907676D01*
X144654704Y-103907676D02*
X144559466Y-103907676D01*
X144559466Y-103907676D02*
X144416609Y-103860057D01*
X144416609Y-103860057D02*
X143845180Y-103288629D01*
X143845180Y-103288629D02*
X143845180Y-103907676D01*
X134966666Y-110234819D02*
X134966666Y-110949104D01*
X134966666Y-110949104D02*
X134919047Y-111091961D01*
X134919047Y-111091961D02*
X134823809Y-111187200D01*
X134823809Y-111187200D02*
X134680952Y-111234819D01*
X134680952Y-111234819D02*
X134585714Y-111234819D01*
X135966666Y-111234819D02*
X135395238Y-111234819D01*
X135680952Y-111234819D02*
X135680952Y-110234819D01*
X135680952Y-110234819D02*
X135585714Y-110377676D01*
X135585714Y-110377676D02*
X135490476Y-110472914D01*
X135490476Y-110472914D02*
X135395238Y-110520533D01*
D11*
%TO.C,R18*%
X145135000Y-114014564D02*
X145135000Y-113560436D01*
X143665000Y-114014564D02*
X143665000Y-113560436D01*
D12*
%TO.C,L2*%
X144376200Y-99280200D02*
G75*
G02*
X144223800Y-99280200I-76200J0D01*
G01*
X144223800Y-99280200D02*
G75*
G02*
X144376200Y-99280200I76200J0D01*
G01*
X140744000Y-99762800D02*
X140744000Y-106671600D01*
X140744000Y-106671600D02*
X147856000Y-106671600D01*
X147856000Y-106671600D02*
X147856000Y-99762800D01*
X147856000Y-99762800D02*
X140744000Y-99762800D01*
D11*
%TO.C,J1*%
X136680000Y-109780000D02*
X135300000Y-109780000D01*
X136680000Y-108400000D02*
X136680000Y-109780000D01*
X136680000Y-107130000D02*
X136680000Y-101940000D01*
X136680000Y-107130000D02*
X133920000Y-107130000D01*
X136680000Y-101940000D02*
X133920000Y-101940000D01*
X133920000Y-107130000D02*
X133920000Y-101940000D01*
%TO.C,R17*%
X140865000Y-113560436D02*
X140865000Y-114014564D01*
X142335000Y-113560436D02*
X142335000Y-114014564D01*
%TO.C,R19*%
X147035000Y-113560436D02*
X147035000Y-114014564D01*
X145565000Y-113560436D02*
X145565000Y-114014564D01*
%TO.C,C24*%
X149537748Y-110735000D02*
X150060252Y-110735000D01*
X149537748Y-109265000D02*
X150060252Y-109265000D01*
%TO.C,C22*%
X139011252Y-112635000D02*
X138488748Y-112635000D01*
X139011252Y-111165000D02*
X138488748Y-111165000D01*
%TO.C,R15*%
X138560436Y-109165000D02*
X139014564Y-109165000D01*
X138560436Y-110635000D02*
X139014564Y-110635000D01*
%TO.C,C25*%
X151260000Y-107386252D02*
X151260000Y-105963748D01*
X148540000Y-107386252D02*
X148540000Y-105963748D01*
D13*
%TO.C,U4*%
G36*
X146711400Y-110233553D02*
G01*
X146457400Y-110233553D01*
X146457400Y-109852553D01*
X146711400Y-109852553D01*
X146711400Y-110233553D01*
G37*
D12*
X142774400Y-111418590D02*
X143215471Y-111418590D01*
X146025600Y-111418590D02*
X146025600Y-110977519D01*
X146025600Y-108167390D02*
X145584529Y-108167390D01*
X142774400Y-108167390D02*
X142774400Y-108608461D01*
X142774400Y-110977519D02*
X142774400Y-111418590D01*
X145584529Y-111418590D02*
X146025600Y-111418590D01*
X146025600Y-108608461D02*
X146025600Y-108167390D01*
X143215471Y-108167390D02*
X142774400Y-108167390D01*
D11*
%TO.C,C21*%
X140160000Y-107336252D02*
X140160000Y-105913748D01*
X137440000Y-107336252D02*
X137440000Y-105913748D01*
%TO.C,R16*%
X149609436Y-113265000D02*
X150063564Y-113265000D01*
X149609436Y-114735000D02*
X150063564Y-114735000D01*
%TO.C,C23*%
X150060252Y-112735000D02*
X149537748Y-112735000D01*
X150060252Y-111265000D02*
X149537748Y-111265000D01*
%TD*%
M02*
