%TF.GenerationSoftware,KiCad,Pcbnew,9.0.4*%
%TF.CreationDate,2025-10-22T22:48:15-04:00*%
%TF.ProjectId,buck_regulator_12V_3A_L6983,6275636b-5f72-4656-9775-6c61746f725f,rev?*%
%TF.SameCoordinates,Original*%
%TF.FileFunction,Copper,L2,Inr*%
%TF.FilePolarity,Positive*%
%FSLAX46Y46*%
G04 Gerber Fmt 4.6, Leading zero omitted, Abs format (unit mm)*
G04 Created by KiCad (PCBNEW 9.0.4) date 2025-10-22 22:48:15*
%MOMM*%
%LPD*%
G01*
G04 APERTURE LIST*
%TA.AperFunction,ComponentPad*%
%ADD10R,1.700000X1.700000*%
%TD*%
%TA.AperFunction,ComponentPad*%
%ADD11C,1.700000*%
%TD*%
%TA.AperFunction,ViaPad*%
%ADD12C,0.600000*%
%TD*%
G04 APERTURE END LIST*
D10*
%TO.N,14.8V*%
%TO.C,J1*%
X135300000Y-108400000D03*
D11*
%TO.N,GND*%
X135300000Y-105860000D03*
%TO.N,12V*%
X135300000Y-103320000D03*
%TD*%
D12*
%TO.N,Net-(C24-Pad2)*%
X144272000Y-104140000D03*
%TO.N,GND*%
X137795000Y-113284000D03*
X151887000Y-112014000D03*
X146558000Y-115824000D03*
%TO.N,Net-(C24-Pad2)*%
X151887000Y-109982000D03*
%TO.N,14.8V*%
X141986000Y-108165997D03*
X141224000Y-108165997D03*
X147574000Y-108165997D03*
X146812000Y-108165997D03*
X141986000Y-110617000D03*
X146812000Y-108966000D03*
X147574000Y-108966000D03*
%TO.N,GND*%
X145034000Y-109982000D03*
X143764000Y-109982000D03*
X141224000Y-107188000D03*
%TO.N,14.8V*%
X141224000Y-108966000D03*
X141986000Y-108966000D03*
%TO.N,GND*%
X141986000Y-107188000D03*
X143002000Y-107696000D03*
X145669000Y-107696000D03*
X146812000Y-107188000D03*
X147574000Y-107188000D03*
%TD*%
%TA.AperFunction,Conductor*%
%TO.N,GND*%
G36*
X151671015Y-99052542D02*
G01*
X151791797Y-99057538D01*
X151795832Y-99057872D01*
X151827391Y-99061805D01*
X151914814Y-99072702D01*
X151918782Y-99073364D01*
X152036126Y-99097969D01*
X152040037Y-99098959D01*
X152154948Y-99133169D01*
X152158774Y-99134483D01*
X152270460Y-99178063D01*
X152274158Y-99179686D01*
X152381866Y-99232340D01*
X152385408Y-99234256D01*
X152488404Y-99295629D01*
X152491794Y-99297844D01*
X152589365Y-99367508D01*
X152592561Y-99369996D01*
X152684041Y-99447475D01*
X152687020Y-99450218D01*
X152771781Y-99534979D01*
X152774524Y-99537958D01*
X152852003Y-99629438D01*
X152854491Y-99632634D01*
X152924155Y-99730205D01*
X152926370Y-99733595D01*
X152987734Y-99836576D01*
X152989661Y-99840138D01*
X153042311Y-99947836D01*
X153043938Y-99951545D01*
X153087516Y-100063226D01*
X153088831Y-100067056D01*
X153123037Y-100181951D01*
X153124031Y-100185877D01*
X153148632Y-100303202D01*
X153149299Y-100307198D01*
X153164127Y-100426167D01*
X153164461Y-100430202D01*
X153169458Y-100550984D01*
X153169500Y-100553009D01*
X153169500Y-115473990D01*
X153169458Y-115476015D01*
X153164461Y-115596797D01*
X153164127Y-115600832D01*
X153149299Y-115719801D01*
X153148632Y-115723797D01*
X153124031Y-115841122D01*
X153123037Y-115845048D01*
X153088831Y-115959943D01*
X153087516Y-115963773D01*
X153043938Y-116075454D01*
X153042311Y-116079163D01*
X152989661Y-116186861D01*
X152987734Y-116190423D01*
X152926370Y-116293404D01*
X152924155Y-116296794D01*
X152854491Y-116394365D01*
X152852003Y-116397561D01*
X152774524Y-116489041D01*
X152771781Y-116492020D01*
X152687020Y-116576781D01*
X152684041Y-116579524D01*
X152592561Y-116657003D01*
X152589365Y-116659491D01*
X152491794Y-116729155D01*
X152488404Y-116731370D01*
X152385423Y-116792734D01*
X152381861Y-116794661D01*
X152274163Y-116847311D01*
X152270454Y-116848938D01*
X152158773Y-116892516D01*
X152154943Y-116893831D01*
X152040048Y-116928037D01*
X152036122Y-116929031D01*
X151918797Y-116953632D01*
X151914801Y-116954299D01*
X151795832Y-116969127D01*
X151791797Y-116969461D01*
X151671015Y-116974458D01*
X151668990Y-116974500D01*
X134462010Y-116974500D01*
X134459985Y-116974458D01*
X134339202Y-116969461D01*
X134335167Y-116969127D01*
X134216198Y-116954299D01*
X134212202Y-116953632D01*
X134094877Y-116929031D01*
X134090951Y-116928037D01*
X133976056Y-116893831D01*
X133972226Y-116892516D01*
X133860545Y-116848938D01*
X133856836Y-116847311D01*
X133749138Y-116794661D01*
X133745583Y-116792738D01*
X133642595Y-116731370D01*
X133639205Y-116729155D01*
X133541634Y-116659491D01*
X133538438Y-116657003D01*
X133446958Y-116579524D01*
X133443979Y-116576781D01*
X133359218Y-116492020D01*
X133356475Y-116489041D01*
X133278996Y-116397561D01*
X133276508Y-116394365D01*
X133206844Y-116296794D01*
X133204629Y-116293404D01*
X133143256Y-116190408D01*
X133141338Y-116186861D01*
X133088688Y-116079163D01*
X133087061Y-116075454D01*
X133043483Y-115963773D01*
X133042168Y-115959943D01*
X133007959Y-115845037D01*
X133006968Y-115841122D01*
X132982364Y-115723782D01*
X132981702Y-115719814D01*
X132966872Y-115600832D01*
X132966538Y-115596797D01*
X132961542Y-115476015D01*
X132961500Y-115473990D01*
X132961500Y-110584197D01*
X141485500Y-110584197D01*
X141485500Y-110649802D01*
X141494065Y-110714857D01*
X141494067Y-110714866D01*
X141511044Y-110778226D01*
X141536152Y-110838842D01*
X141568954Y-110895657D01*
X141568959Y-110895664D01*
X141608894Y-110947708D01*
X141655291Y-110994105D01*
X141693816Y-111023666D01*
X141707340Y-111034044D01*
X141764159Y-111066848D01*
X141824774Y-111091956D01*
X141888148Y-111108936D01*
X141953195Y-111117500D01*
X141953198Y-111117500D01*
X142018802Y-111117500D01*
X142018805Y-111117500D01*
X142083852Y-111108936D01*
X142147226Y-111091956D01*
X142207841Y-111066848D01*
X142264660Y-111034044D01*
X142316711Y-110994103D01*
X142363103Y-110947711D01*
X142403044Y-110895660D01*
X142435848Y-110838841D01*
X142460956Y-110778226D01*
X142477936Y-110714852D01*
X142486500Y-110649805D01*
X142486500Y-110584195D01*
X142477936Y-110519148D01*
X142460956Y-110455774D01*
X142435848Y-110395159D01*
X142403044Y-110338340D01*
X142383378Y-110312711D01*
X142363105Y-110286291D01*
X142316708Y-110239894D01*
X142264664Y-110199959D01*
X142264657Y-110199954D01*
X142207842Y-110167152D01*
X142147226Y-110142044D01*
X142083866Y-110125067D01*
X142083857Y-110125065D01*
X142083854Y-110125064D01*
X142083852Y-110125064D01*
X142018805Y-110116500D01*
X141953195Y-110116500D01*
X141888148Y-110125064D01*
X141888146Y-110125064D01*
X141888142Y-110125065D01*
X141888133Y-110125067D01*
X141824773Y-110142044D01*
X141764157Y-110167152D01*
X141707342Y-110199954D01*
X141707335Y-110199959D01*
X141655291Y-110239894D01*
X141608894Y-110286291D01*
X141568959Y-110338335D01*
X141568954Y-110338342D01*
X141536152Y-110395157D01*
X141511044Y-110455773D01*
X141494067Y-110519133D01*
X141494065Y-110519142D01*
X141485500Y-110584197D01*
X132961500Y-110584197D01*
X132961500Y-109949197D01*
X151386500Y-109949197D01*
X151386500Y-110014802D01*
X151395065Y-110079857D01*
X151395067Y-110079866D01*
X151412044Y-110143226D01*
X151437152Y-110203842D01*
X151469954Y-110260657D01*
X151469959Y-110260664D01*
X151509894Y-110312708D01*
X151556291Y-110359105D01*
X151594816Y-110388666D01*
X151608340Y-110399044D01*
X151665159Y-110431848D01*
X151725774Y-110456956D01*
X151789148Y-110473936D01*
X151854195Y-110482500D01*
X151854198Y-110482500D01*
X151919802Y-110482500D01*
X151919805Y-110482500D01*
X151984852Y-110473936D01*
X152048226Y-110456956D01*
X152108841Y-110431848D01*
X152165660Y-110399044D01*
X152217711Y-110359103D01*
X152264103Y-110312711D01*
X152304044Y-110260660D01*
X152336848Y-110203841D01*
X152361956Y-110143226D01*
X152378936Y-110079852D01*
X152387500Y-110014805D01*
X152387500Y-109949195D01*
X152378936Y-109884148D01*
X152361956Y-109820774D01*
X152336848Y-109760159D01*
X152304044Y-109703340D01*
X152264103Y-109651289D01*
X152217711Y-109604897D01*
X152217708Y-109604894D01*
X152165664Y-109564959D01*
X152165657Y-109564954D01*
X152108842Y-109532152D01*
X152048226Y-109507044D01*
X151984866Y-109490067D01*
X151984857Y-109490065D01*
X151984854Y-109490064D01*
X151984852Y-109490064D01*
X151919805Y-109481500D01*
X151854195Y-109481500D01*
X151789148Y-109490064D01*
X151789146Y-109490064D01*
X151789142Y-109490065D01*
X151789133Y-109490067D01*
X151725773Y-109507044D01*
X151665157Y-109532152D01*
X151608342Y-109564954D01*
X151608335Y-109564959D01*
X151556291Y-109604894D01*
X151509894Y-109651291D01*
X151469959Y-109703335D01*
X151469954Y-109703342D01*
X151437152Y-109760157D01*
X151412044Y-109820773D01*
X151395067Y-109884133D01*
X151395065Y-109884142D01*
X151386500Y-109949197D01*
X132961500Y-109949197D01*
X132961500Y-107533794D01*
X134249500Y-107533794D01*
X134249500Y-109266217D01*
X134251333Y-109286399D01*
X134251335Y-109286409D01*
X134265822Y-109332894D01*
X134265823Y-109332898D01*
X134291008Y-109374559D01*
X134325440Y-109408991D01*
X134367101Y-109434176D01*
X134367104Y-109434176D01*
X134367108Y-109434179D01*
X134404852Y-109445941D01*
X134413589Y-109448664D01*
X134413590Y-109448664D01*
X134413593Y-109448665D01*
X134433789Y-109450500D01*
X136166210Y-109450499D01*
X136166217Y-109450499D01*
X136186399Y-109448666D01*
X136186401Y-109448665D01*
X136186407Y-109448665D01*
X136232892Y-109434179D01*
X136232896Y-109434176D01*
X136232898Y-109434176D01*
X136274559Y-109408991D01*
X136274558Y-109408991D01*
X136274561Y-109408990D01*
X136308990Y-109374561D01*
X136315287Y-109364143D01*
X136334176Y-109332898D01*
X136334176Y-109332896D01*
X136334179Y-109332892D01*
X136348665Y-109286407D01*
X136350500Y-109266211D01*
X136350499Y-108133194D01*
X140723500Y-108133194D01*
X140723500Y-108198799D01*
X140732065Y-108263854D01*
X140732067Y-108263863D01*
X140749044Y-108327223D01*
X140774152Y-108387839D01*
X140806954Y-108444654D01*
X140806959Y-108444661D01*
X140846894Y-108496705D01*
X140881539Y-108531350D01*
X140893672Y-108551420D01*
X140895088Y-108574830D01*
X140885463Y-108596217D01*
X140881540Y-108600646D01*
X140846893Y-108635293D01*
X140806959Y-108687335D01*
X140806954Y-108687342D01*
X140774152Y-108744157D01*
X140749044Y-108804773D01*
X140732067Y-108868133D01*
X140732065Y-108868142D01*
X140723500Y-108933197D01*
X140723500Y-108998802D01*
X140732065Y-109063857D01*
X140732067Y-109063866D01*
X140749044Y-109127226D01*
X140774152Y-109187842D01*
X140806954Y-109244657D01*
X140806959Y-109244664D01*
X140846894Y-109296708D01*
X140893291Y-109343105D01*
X140931816Y-109372666D01*
X140945340Y-109383044D01*
X141002159Y-109415848D01*
X141062774Y-109440956D01*
X141126148Y-109457936D01*
X141191195Y-109466500D01*
X141191198Y-109466500D01*
X141256802Y-109466500D01*
X141256805Y-109466500D01*
X141321852Y-109457936D01*
X141385226Y-109440956D01*
X141445841Y-109415848D01*
X141502660Y-109383044D01*
X141554711Y-109343103D01*
X141570352Y-109327462D01*
X141590422Y-109315329D01*
X141613832Y-109313913D01*
X141635219Y-109323538D01*
X141639648Y-109327462D01*
X141655291Y-109343105D01*
X141693816Y-109372666D01*
X141707340Y-109383044D01*
X141764159Y-109415848D01*
X141824774Y-109440956D01*
X141888148Y-109457936D01*
X141953195Y-109466500D01*
X141953198Y-109466500D01*
X142018802Y-109466500D01*
X142018805Y-109466500D01*
X142083852Y-109457936D01*
X142147226Y-109440956D01*
X142207841Y-109415848D01*
X142264660Y-109383044D01*
X142316711Y-109343103D01*
X142363103Y-109296711D01*
X142403044Y-109244660D01*
X142435848Y-109187841D01*
X142460956Y-109127226D01*
X142477936Y-109063852D01*
X142486500Y-108998805D01*
X142486500Y-108933195D01*
X142477936Y-108868148D01*
X142460956Y-108804774D01*
X142435848Y-108744159D01*
X142403044Y-108687340D01*
X142367000Y-108640367D01*
X142363105Y-108635291D01*
X142328460Y-108600646D01*
X142316327Y-108580576D01*
X142314911Y-108557166D01*
X142324536Y-108535779D01*
X142328444Y-108531366D01*
X142363103Y-108496708D01*
X142403044Y-108444657D01*
X142435848Y-108387838D01*
X142460956Y-108327223D01*
X142477936Y-108263849D01*
X142486500Y-108198802D01*
X142486500Y-108133194D01*
X146311500Y-108133194D01*
X146311500Y-108198799D01*
X146320065Y-108263854D01*
X146320067Y-108263863D01*
X146337044Y-108327223D01*
X146362152Y-108387839D01*
X146394954Y-108444654D01*
X146394959Y-108444661D01*
X146434894Y-108496705D01*
X146469539Y-108531350D01*
X146481672Y-108551420D01*
X146483088Y-108574830D01*
X146473463Y-108596217D01*
X146469540Y-108600646D01*
X146434893Y-108635293D01*
X146394959Y-108687335D01*
X146394954Y-108687342D01*
X146362152Y-108744157D01*
X146337044Y-108804773D01*
X146320067Y-108868133D01*
X146320065Y-108868142D01*
X146311500Y-108933197D01*
X146311500Y-108998802D01*
X146320065Y-109063857D01*
X146320067Y-109063866D01*
X146337044Y-109127226D01*
X146362152Y-109187842D01*
X146394954Y-109244657D01*
X146394959Y-109244664D01*
X146434894Y-109296708D01*
X146481291Y-109343105D01*
X146519816Y-109372666D01*
X146533340Y-109383044D01*
X146590159Y-109415848D01*
X146650774Y-109440956D01*
X146714148Y-109457936D01*
X146779195Y-109466500D01*
X146779198Y-109466500D01*
X146844802Y-109466500D01*
X146844805Y-109466500D01*
X146909852Y-109457936D01*
X146973226Y-109440956D01*
X147033841Y-109415848D01*
X147090660Y-109383044D01*
X147142711Y-109343103D01*
X147158352Y-109327462D01*
X147178422Y-109315329D01*
X147201832Y-109313913D01*
X147223219Y-109323538D01*
X147227648Y-109327462D01*
X147243291Y-109343105D01*
X147281816Y-109372666D01*
X147295340Y-109383044D01*
X147352159Y-109415848D01*
X147412774Y-109440956D01*
X147476148Y-109457936D01*
X147541195Y-109466500D01*
X147541198Y-109466500D01*
X147606802Y-109466500D01*
X147606805Y-109466500D01*
X147671852Y-109457936D01*
X147735226Y-109440956D01*
X147795841Y-109415848D01*
X147852660Y-109383044D01*
X147904711Y-109343103D01*
X147951103Y-109296711D01*
X147991044Y-109244660D01*
X148023848Y-109187841D01*
X148048956Y-109127226D01*
X148065936Y-109063852D01*
X148074500Y-108998805D01*
X148074500Y-108933195D01*
X148065936Y-108868148D01*
X148048956Y-108804774D01*
X148023848Y-108744159D01*
X147991044Y-108687340D01*
X147955000Y-108640367D01*
X147951105Y-108635291D01*
X147916460Y-108600646D01*
X147904327Y-108580576D01*
X147902911Y-108557166D01*
X147912536Y-108535779D01*
X147916444Y-108531366D01*
X147951103Y-108496708D01*
X147991044Y-108444657D01*
X148023848Y-108387838D01*
X148048956Y-108327223D01*
X148065936Y-108263849D01*
X148074500Y-108198802D01*
X148074500Y-108133192D01*
X148065936Y-108068145D01*
X148048956Y-108004771D01*
X148023848Y-107944156D01*
X147991044Y-107887337D01*
X147951103Y-107835286D01*
X147904711Y-107788894D01*
X147904708Y-107788891D01*
X147852664Y-107748956D01*
X147852657Y-107748951D01*
X147795842Y-107716149D01*
X147735226Y-107691041D01*
X147671866Y-107674064D01*
X147671857Y-107674062D01*
X147671854Y-107674061D01*
X147671852Y-107674061D01*
X147606805Y-107665497D01*
X147541195Y-107665497D01*
X147476148Y-107674061D01*
X147476146Y-107674061D01*
X147476142Y-107674062D01*
X147476133Y-107674064D01*
X147412773Y-107691041D01*
X147352157Y-107716149D01*
X147295342Y-107748951D01*
X147295335Y-107748956D01*
X147243291Y-107788891D01*
X147227647Y-107804535D01*
X147207576Y-107816668D01*
X147184166Y-107818083D01*
X147162780Y-107808457D01*
X147158353Y-107804535D01*
X147142713Y-107788896D01*
X147142708Y-107788891D01*
X147090664Y-107748956D01*
X147090657Y-107748951D01*
X147033842Y-107716149D01*
X146973226Y-107691041D01*
X146909866Y-107674064D01*
X146909857Y-107674062D01*
X146909854Y-107674061D01*
X146909852Y-107674061D01*
X146844805Y-107665497D01*
X146779195Y-107665497D01*
X146714148Y-107674061D01*
X146714146Y-107674061D01*
X146714142Y-107674062D01*
X146714133Y-107674064D01*
X146650773Y-107691041D01*
X146590157Y-107716149D01*
X146533342Y-107748951D01*
X146533335Y-107748956D01*
X146481291Y-107788891D01*
X146434894Y-107835288D01*
X146394959Y-107887332D01*
X146394954Y-107887339D01*
X146362152Y-107944154D01*
X146337044Y-108004770D01*
X146320067Y-108068130D01*
X146320065Y-108068139D01*
X146311500Y-108133194D01*
X142486500Y-108133194D01*
X142486500Y-108133192D01*
X142477936Y-108068145D01*
X142460956Y-108004771D01*
X142435848Y-107944156D01*
X142403044Y-107887337D01*
X142363103Y-107835286D01*
X142316711Y-107788894D01*
X142316708Y-107788891D01*
X142264664Y-107748956D01*
X142264657Y-107748951D01*
X142207842Y-107716149D01*
X142147226Y-107691041D01*
X142083866Y-107674064D01*
X142083857Y-107674062D01*
X142083854Y-107674061D01*
X142083852Y-107674061D01*
X142018805Y-107665497D01*
X141953195Y-107665497D01*
X141888148Y-107674061D01*
X141888146Y-107674061D01*
X141888142Y-107674062D01*
X141888133Y-107674064D01*
X141824773Y-107691041D01*
X141764157Y-107716149D01*
X141707342Y-107748951D01*
X141707335Y-107748956D01*
X141655291Y-107788891D01*
X141639647Y-107804535D01*
X141619576Y-107816668D01*
X141596166Y-107818083D01*
X141574780Y-107808457D01*
X141570353Y-107804535D01*
X141554713Y-107788896D01*
X141554708Y-107788891D01*
X141502664Y-107748956D01*
X141502657Y-107748951D01*
X141445842Y-107716149D01*
X141385226Y-107691041D01*
X141321866Y-107674064D01*
X141321857Y-107674062D01*
X141321854Y-107674061D01*
X141321852Y-107674061D01*
X141256805Y-107665497D01*
X141191195Y-107665497D01*
X141126148Y-107674061D01*
X141126146Y-107674061D01*
X141126142Y-107674062D01*
X141126133Y-107674064D01*
X141062773Y-107691041D01*
X141002157Y-107716149D01*
X140945342Y-107748951D01*
X140945335Y-107748956D01*
X140893291Y-107788891D01*
X140846894Y-107835288D01*
X140806959Y-107887332D01*
X140806954Y-107887339D01*
X140774152Y-107944154D01*
X140749044Y-108004770D01*
X140732067Y-108068130D01*
X140732065Y-108068139D01*
X140723500Y-108133194D01*
X136350499Y-108133194D01*
X136350499Y-107533790D01*
X136350499Y-107533789D01*
X136350499Y-107533782D01*
X136348666Y-107513600D01*
X136348664Y-107513590D01*
X136348664Y-107513589D01*
X136334179Y-107467108D01*
X136334176Y-107467104D01*
X136334176Y-107467101D01*
X136308991Y-107425440D01*
X136274559Y-107391008D01*
X136232898Y-107365823D01*
X136232894Y-107365822D01*
X136232893Y-107365821D01*
X136232892Y-107365821D01*
X136219542Y-107361660D01*
X136186410Y-107351335D01*
X136179675Y-107350723D01*
X136166211Y-107349500D01*
X136166205Y-107349500D01*
X134433782Y-107349500D01*
X134413600Y-107351333D01*
X134413590Y-107351335D01*
X134367105Y-107365822D01*
X134367101Y-107365823D01*
X134325440Y-107391008D01*
X134291008Y-107425440D01*
X134265823Y-107467101D01*
X134265822Y-107467105D01*
X134251335Y-107513589D01*
X134249500Y-107533794D01*
X132961500Y-107533794D01*
X132961500Y-103268390D01*
X134249500Y-103268390D01*
X134249500Y-103371609D01*
X134259616Y-103474320D01*
X134259616Y-103474322D01*
X134279753Y-103575559D01*
X134279753Y-103575560D01*
X134309712Y-103674322D01*
X134309715Y-103674331D01*
X134349210Y-103769682D01*
X134397865Y-103860709D01*
X134397869Y-103860716D01*
X134455213Y-103946537D01*
X134481669Y-103978774D01*
X134520694Y-104026326D01*
X134520696Y-104026329D01*
X134593670Y-104099303D01*
X134593673Y-104099305D01*
X134593676Y-104099308D01*
X134673463Y-104164787D01*
X134759284Y-104222131D01*
X134759290Y-104222134D01*
X134850317Y-104270789D01*
X134923800Y-104301226D01*
X134945670Y-104310285D01*
X135044441Y-104340247D01*
X135145674Y-104360383D01*
X135227848Y-104368476D01*
X135248391Y-104370500D01*
X135248392Y-104370500D01*
X135351609Y-104370500D01*
X135366282Y-104369054D01*
X135454326Y-104360383D01*
X135555559Y-104340247D01*
X135654330Y-104310285D01*
X135705086Y-104289260D01*
X135749682Y-104270789D01*
X135749688Y-104270786D01*
X135840716Y-104222131D01*
X135926537Y-104164787D01*
X135996714Y-104107195D01*
X143771500Y-104107195D01*
X143771500Y-104172805D01*
X143777995Y-104222134D01*
X143780065Y-104237857D01*
X143780067Y-104237866D01*
X143797044Y-104301226D01*
X143822152Y-104361842D01*
X143854954Y-104418657D01*
X143854959Y-104418664D01*
X143894894Y-104470708D01*
X143941291Y-104517105D01*
X143979816Y-104546666D01*
X143993340Y-104557044D01*
X144050159Y-104589848D01*
X144110774Y-104614956D01*
X144174148Y-104631936D01*
X144239195Y-104640500D01*
X144239198Y-104640500D01*
X144304802Y-104640500D01*
X144304805Y-104640500D01*
X144369852Y-104631936D01*
X144433226Y-104614956D01*
X144493841Y-104589848D01*
X144550660Y-104557044D01*
X144602711Y-104517103D01*
X144649103Y-104470711D01*
X144689044Y-104418660D01*
X144721848Y-104361841D01*
X144746956Y-104301226D01*
X144763936Y-104237852D01*
X144772500Y-104172805D01*
X144772500Y-104107195D01*
X144763936Y-104042148D01*
X144746956Y-103978774D01*
X144721848Y-103918159D01*
X144689044Y-103861340D01*
X144649103Y-103809289D01*
X144602711Y-103762897D01*
X144602708Y-103762894D01*
X144550664Y-103722959D01*
X144550657Y-103722954D01*
X144493842Y-103690152D01*
X144433226Y-103665044D01*
X144369866Y-103648067D01*
X144369857Y-103648065D01*
X144369854Y-103648064D01*
X144369852Y-103648064D01*
X144304805Y-103639500D01*
X144239195Y-103639500D01*
X144174148Y-103648064D01*
X144174146Y-103648064D01*
X144174142Y-103648065D01*
X144174133Y-103648067D01*
X144110773Y-103665044D01*
X144050157Y-103690152D01*
X143993342Y-103722954D01*
X143993335Y-103722959D01*
X143941291Y-103762894D01*
X143894894Y-103809291D01*
X143854959Y-103861335D01*
X143854954Y-103861342D01*
X143822152Y-103918157D01*
X143797044Y-103978773D01*
X143780067Y-104042133D01*
X143780065Y-104042142D01*
X143780064Y-104042146D01*
X143780064Y-104042148D01*
X143771500Y-104107195D01*
X135996714Y-104107195D01*
X136006324Y-104099308D01*
X136006329Y-104099303D01*
X136034690Y-104070943D01*
X136079303Y-104026329D01*
X136079308Y-104026324D01*
X136144787Y-103946537D01*
X136202131Y-103860716D01*
X136250786Y-103769688D01*
X136250786Y-103769686D01*
X136250789Y-103769682D01*
X136283731Y-103690152D01*
X136290285Y-103674330D01*
X136320247Y-103575559D01*
X136340383Y-103474326D01*
X136350500Y-103371608D01*
X136350500Y-103268392D01*
X136340383Y-103165674D01*
X136320247Y-103064441D01*
X136290285Y-102965670D01*
X136284126Y-102950802D01*
X136250789Y-102870317D01*
X136202134Y-102779290D01*
X136202131Y-102779284D01*
X136144787Y-102693463D01*
X136079308Y-102613676D01*
X136079305Y-102613673D01*
X136079303Y-102613670D01*
X136006329Y-102540696D01*
X136006326Y-102540694D01*
X136006324Y-102540692D01*
X135926537Y-102475213D01*
X135840716Y-102417869D01*
X135840709Y-102417865D01*
X135749682Y-102369210D01*
X135654331Y-102329715D01*
X135654322Y-102329712D01*
X135555560Y-102299753D01*
X135454321Y-102279616D01*
X135351609Y-102269500D01*
X135351608Y-102269500D01*
X135248392Y-102269500D01*
X135248391Y-102269500D01*
X135145679Y-102279616D01*
X135145677Y-102279616D01*
X135044440Y-102299753D01*
X135044439Y-102299753D01*
X134945677Y-102329712D01*
X134945668Y-102329715D01*
X134850317Y-102369210D01*
X134759290Y-102417865D01*
X134759282Y-102417870D01*
X134673465Y-102475211D01*
X134593673Y-102540694D01*
X134593670Y-102540696D01*
X134520696Y-102613670D01*
X134520694Y-102613673D01*
X134455211Y-102693465D01*
X134397870Y-102779282D01*
X134397865Y-102779290D01*
X134349210Y-102870317D01*
X134309715Y-102965668D01*
X134309712Y-102965677D01*
X134279753Y-103064439D01*
X134279753Y-103064440D01*
X134259616Y-103165677D01*
X134259616Y-103165679D01*
X134249500Y-103268390D01*
X132961500Y-103268390D01*
X132961500Y-100553009D01*
X132961542Y-100550984D01*
X132966538Y-100430202D01*
X132966872Y-100426167D01*
X132968502Y-100413083D01*
X132981702Y-100307181D01*
X132982363Y-100303221D01*
X133006970Y-100185867D01*
X133007957Y-100181967D01*
X133042172Y-100067044D01*
X133043483Y-100063226D01*
X133087067Y-99951530D01*
X133088681Y-99947850D01*
X133141346Y-99840123D01*
X133143251Y-99836601D01*
X133204638Y-99733581D01*
X133206844Y-99730205D01*
X133276517Y-99632621D01*
X133278987Y-99629449D01*
X133356487Y-99537944D01*
X133359206Y-99534991D01*
X133443991Y-99450206D01*
X133446944Y-99447487D01*
X133538449Y-99369987D01*
X133541621Y-99367517D01*
X133639208Y-99297841D01*
X133642581Y-99295638D01*
X133745601Y-99234251D01*
X133749123Y-99232346D01*
X133856850Y-99179681D01*
X133860530Y-99178067D01*
X133972232Y-99134480D01*
X133976044Y-99133172D01*
X134090967Y-99098957D01*
X134094867Y-99097970D01*
X134212221Y-99073363D01*
X134216181Y-99072702D01*
X134322083Y-99059502D01*
X134335167Y-99057872D01*
X134339201Y-99057538D01*
X134459985Y-99052542D01*
X134462010Y-99052500D01*
X134498507Y-99052500D01*
X151632493Y-99052500D01*
X151668990Y-99052500D01*
X151671015Y-99052542D01*
G37*
%TD.AperFunction*%
%TD*%
M02*
