%TF.GenerationSoftware,KiCad,Pcbnew,9.0.4*%
%TF.CreationDate,2025-10-22T22:48:15-04:00*%
%TF.ProjectId,buck_regulator_12V_3A_L6983,6275636b-5f72-4656-9775-6c61746f725f,rev?*%
%TF.SameCoordinates,Original*%
%TF.FileFunction,Soldermask,Top*%
%TF.FilePolarity,Negative*%
%FSLAX46Y46*%
G04 Gerber Fmt 4.6, Leading zero omitted, Abs format (unit mm)*
G04 Created by KiCad (PCBNEW 9.0.4) date 2025-10-22 22:48:15*
%MOMM*%
%LPD*%
G01*
G04 APERTURE LIST*
G04 Aperture macros list*
%AMRoundRect*
0 Rectangle with rounded corners*
0 $1 Rounding radius*
0 $2 $3 $4 $5 $6 $7 $8 $9 X,Y pos of 4 corners*
0 Add a 4 corners polygon primitive as box body*
4,1,4,$2,$3,$4,$5,$6,$7,$8,$9,$2,$3,0*
0 Add four circle primitives for the rounded corners*
1,1,$1+$1,$2,$3*
1,1,$1+$1,$4,$5*
1,1,$1+$1,$6,$7*
1,1,$1+$1,$8,$9*
0 Add four rect primitives between the rounded corners*
20,1,$1+$1,$2,$3,$4,$5,0*
20,1,$1+$1,$4,$5,$6,$7,0*
20,1,$1+$1,$6,$7,$8,$9,0*
20,1,$1+$1,$8,$9,$2,$3,0*%
G04 Aperture macros list end*
%ADD10RoundRect,0.250000X0.450000X-0.262500X0.450000X0.262500X-0.450000X0.262500X-0.450000X-0.262500X0*%
%ADD11R,4.292600X1.397000*%
%ADD12R,1.700000X1.700000*%
%ADD13C,1.700000*%
%ADD14RoundRect,0.250000X-0.450000X0.262500X-0.450000X-0.262500X0.450000X-0.262500X0.450000X0.262500X0*%
%ADD15RoundRect,0.250000X-0.250000X-0.475000X0.250000X-0.475000X0.250000X0.475000X-0.250000X0.475000X0*%
%ADD16RoundRect,0.250000X0.250000X0.475000X-0.250000X0.475000X-0.250000X-0.475000X0.250000X-0.475000X0*%
%ADD17RoundRect,0.250000X-0.262500X-0.450000X0.262500X-0.450000X0.262500X0.450000X-0.262500X0.450000X0*%
%ADD18RoundRect,0.250000X1.100000X-0.325000X1.100000X0.325000X-1.100000X0.325000X-1.100000X-0.325000X0*%
%ADD19R,0.762000X0.203200*%
%ADD20R,0.203200X0.762000*%
%ADD21R,0.533400X0.914400*%
G04 APERTURE END LIST*
D10*
%TO.C,R18*%
X144400000Y-112875000D03*
X144400000Y-114700000D03*
%TD*%
D11*
%TO.C,L2*%
X144300000Y-101134400D03*
X144300000Y-105300000D03*
%TD*%
D12*
%TO.C,J1*%
X135300000Y-108400000D03*
D13*
X135300000Y-105860000D03*
X135300000Y-103320000D03*
%TD*%
D14*
%TO.C,R17*%
X141600000Y-114700000D03*
X141600000Y-112875000D03*
%TD*%
%TO.C,R19*%
X146300000Y-112875000D03*
X146300000Y-114700000D03*
%TD*%
D15*
%TO.C,C24*%
X150749000Y-110000000D03*
X148849000Y-110000000D03*
%TD*%
D16*
%TO.C,C22*%
X139700000Y-111900000D03*
X137800000Y-111900000D03*
%TD*%
D17*
%TO.C,R15*%
X137875000Y-109900000D03*
X139700000Y-109900000D03*
%TD*%
D18*
%TO.C,C25*%
X149900000Y-105200000D03*
X149900000Y-108150000D03*
%TD*%
D19*
%TO.C,U4*%
X142977600Y-109042801D03*
X142977600Y-109542927D03*
X142977600Y-110043053D03*
X142977600Y-110543179D03*
D20*
X143649811Y-111215390D03*
X144149937Y-111215390D03*
X144650063Y-111215390D03*
X145150189Y-111215390D03*
D19*
X145822400Y-110543179D03*
X145822400Y-110043053D03*
X145822400Y-109542927D03*
X145822400Y-109042801D03*
D20*
X145150189Y-108370590D03*
X144650063Y-108370590D03*
X144149937Y-108370590D03*
X143649811Y-108370590D03*
D21*
X144400000Y-110000000D03*
%TD*%
D18*
%TO.C,C21*%
X138800000Y-105150000D03*
X138800000Y-108100000D03*
%TD*%
D17*
%TO.C,R16*%
X148924000Y-114000000D03*
X150749000Y-114000000D03*
%TD*%
D16*
%TO.C,C23*%
X150749000Y-112000000D03*
X148849000Y-112000000D03*
%TD*%
M02*
